<svg width="318" height="305" xmlns="http://www.w3.org/2000/svg" xmlns:xlink="http://www.w3.org/1999/xlink" overflow="hidden"><defs><clipPath id="clip0"><rect x="589" y="297" width="318" height="305"/></clipPath><clipPath id="clip1"><rect x="590" y="297" width="316" height="304"/></clipPath><clipPath id="clip2"><rect x="590" y="297" width="316" height="304"/></clipPath><clipPath id="clip3"><rect x="590" y="297" width="316" height="396"/></clipPath></defs><g clip-path="url(#clip0)" transform="translate(-589 -297)"><g clip-path="url(#clip1)"><g clip-path="url(#clip2)"><g clip-path="url(#clip3)"><path d="M240.176 75.8242C241.298 67.6556 238.122 58.2894 230.971 51.1414 219.952 40.1225 203.678 38.533 194.621 47.5864 185.565 56.643 187.157 72.917 198.173 83.9359 199.39 85.1494 200.663 86.2459 201.987 87.2286L87.2286 201.987C86.2427 200.663 85.1494 199.387 83.9359 198.176 72.9202 187.157 56.643 185.568 47.5864 194.621 38.5299 203.678 40.1225 219.952 51.1383 230.971 58.2925 238.122 67.6556 241.301 75.821 240.176 74.6992 248.344 77.8782 257.711 85.0293 264.859 96.045 275.878 112.322 277.467 121.379 268.414 130.435 259.357 128.843 243.083 117.827 232.064 116.61 230.851 115.337 229.754 114.013 228.771L228.771 114.013C229.754 115.337 230.851 116.613 232.064 117.824 243.08 128.843 259.357 130.432 268.41 121.379 277.47 112.322 275.878 96.0482 264.862 85.0293 257.707 77.8814 248.344 74.7024 240.176 75.8242Z" transform="matrix(1 0 0 1.00195 590 297)"/><text font-family="Arial,Arial_MSFontService,sans-serif" font-weight="700" font-size="5" transform="matrix(3.16 0 0 3.16617 590 661)">Created by Marco Livolsi<tspan font-size="5" x="0" y="5.05342">from the Noun Project</tspan></text></g></g></g></g></svg>