<svg width="472" height="459" xmlns="http://www.w3.org/2000/svg" xmlns:xlink="http://www.w3.org/1999/xlink" overflow="hidden"><defs><clipPath id="clip0"><rect x="663" y="-1" width="472" height="459"/></clipPath><clipPath id="clip1"><rect x="664" y="0" width="470" height="457"/></clipPath><clipPath id="clip2"><rect x="664" y="0" width="470" height="458"/></clipPath><clipPath id="clip3"><rect x="664" y="0" width="470" height="587"/></clipPath></defs><g clip-path="url(#clip0)" transform="translate(-663 1)"><g clip-path="url(#clip1)"><g clip-path="url(#clip2)"><g clip-path="url(#clip3)"><path d="M397.167 99.057C300.457 68.0723 251.633 95.3012 234.732 109.385 217.831 95.3012 169.007 68.0723 72.2975 99.057 68.5418 100.465 65.725 103.752 65.725 107.977L65.725 366.182C65.725 371.924 71.4243 377.261 77.9311 375.102 185.908 340.362 224.873 383.552 227.221 386.364L227.221 386.364 227.221 386.364 227.221 386.364C231.028 390.186 235.774 390.956 240.835 385.895L240.835 385.895 240.835 385.895 240.835 385.895C241.774 384.956 280.74 339.887 390.125 374.628 396.571 376.778 402.336 371.506 402.336 365.713L402.336 107.977C403.739 103.752 400.922 100.465 397.167 99.057ZM84.5036 353.507 84.5036 115.019C133.286 100.451 194.123 94.6815 230.037 130.511L230.037 364.304C210.32 350.22 165.721 330.972 84.5036 353.507ZM384.961 353.507C303.743 330.508 259.144 350.22 239.427 363.835L239.427 130.042C244.121 127.694 277.209 82.3206 384.961 114.549L384.961 353.507Z" fill="#FFFFFF" transform="matrix(1.00114 0 0 1 664 0)"/><text fill="#FFFFFF" font-family="Arial,Arial_MSFontService,sans-serif" font-weight="700" font-size="5" transform="matrix(4.7 0 0 4.69464 664 540)">Created by Setyo Ari Wibowo<tspan font-size="5" x="0" y="4.8992">from the Noun Project</tspan></text></g></g></g></g></svg>