<svg width="393" height="396" xmlns="http://www.w3.org/2000/svg" xmlns:xlink="http://www.w3.org/1999/xlink" overflow="hidden"><defs><clipPath id="clip0"><rect x="198" y="77" width="393" height="396"/></clipPath><clipPath id="clip1"><rect x="198" y="78" width="392" height="395"/></clipPath><clipPath id="clip2"><rect x="198" y="78" width="392" height="395"/></clipPath><clipPath id="clip3"><rect x="198" y="78" width="392" height="490"/></clipPath></defs><g clip-path="url(#clip0)" transform="translate(-198 -77)"><g clip-path="url(#clip1)"><g clip-path="url(#clip2)"><g clip-path="url(#clip3)"><path d="M67.3259 12555.2 67.3259 12861.2 324.389 12861.2 324.389 12555.2 267.797 12555.2 267.797 12581.2 123.964 12581.2 123.964 12555.2Z" fill-rule="evenodd" transform="matrix(1.00073 0 0 1 198 -12412.3)"/><path d="M195.88 12511.1C179.654 12511.1 166.355 12523.9 165.421 12539.9L134.652 12539.9 134.652 12570.5 257.063 12570.5 257.063 12539.9 226.292 12539.9C225.362 12524 212.091 12511.1 195.88 12511.1ZM195.88 12523.3C205.514 12523.3 213.205 12530.6 214.076 12539.9L177.639 12539.9C178.52 12530.6 186.239 12523.3 195.88 12523.3Z" fill-rule="evenodd" transform="matrix(1.00073 0 0 1 198 -12412.3)"/><text font-family="Arial,Arial_MSFontService,sans-serif" font-weight="700" font-size="5" transform="matrix(12.25 0 0 12.2411 198 653)">Created by P Thanga Vignesh<tspan font-size="5" x="0" y="5.06491">from the Noun Project</tspan></text></g></g></g></g></svg>