<svg xmlns="http://www.w3.org/2000/svg" xmlns:xlink="http://www.w3.org/1999/xlink" version="1.1" x="0px" y="0px" viewBox="0 0 100 125" enable-background="new 0 0 100 100" xml:space="preserve"><path d="M88.055,24.575L75.43,11.949c-0.392-0.391-1.025-0.391-1.414,0l-3.43,3.428c-0.188,0.188-0.293,0.442-0.293,0.707  c0,0.266,0.105,0.52,0.293,0.707l3.893,3.893L33.941,61.221c-0.003,0.002-0.005,0.002-0.008,0.004c-1.134,1.131-2.977,1.131-4.107,0  c-0.518-0.518-0.818-1.205-0.849-1.938c-0.001-0.021-0.003-0.043-0.005-0.064c-0.056-1.512-1.303-2.725-2.828-2.725  c-0.761,0-1.482,0.277-2.006,0.836l-8.646,8.646h-0.001c-2.475,2.475-3.838,5.766-3.838,9.266s1.363,6.791,3.839,9.266  c5.109,5.109,13.423,5.109,18.531,0l8.644-8.646c0.542-0.525,0.837-1.248,0.837-2.005c0.001-0.756-0.292-1.467-0.827-2.002  c-0.508-0.51-1.176-0.801-1.891-0.827c-0.023-0.003-0.046-0.005-0.069-0.007c-0.733-0.028-1.42-0.332-1.938-0.85  c-1.12-1.121-1.132-2.938-0.036-4.074L79.32,25.526l3.891,3.891c0.393,0.391,1.023,0.391,1.414,0l3.43-3.428  C88.445,25.598,88.445,24.966,88.055,24.575z"/><text x="0" y="115" fill="#000000" font-size="5px" font-weight="bold" font-family="'Helvetica Neue', Helvetica, Arial-Unicode, Arial, Sans-serif">Created by Round Pixel</text><text x="0" y="120" fill="#000000" font-size="5px" font-weight="bold" font-family="'Helvetica Neue', Helvetica, Arial-Unicode, Arial, Sans-serif">from the Noun Project</text></svg>