<svg width="453" height="452" xmlns="http://www.w3.org/2000/svg" xmlns:xlink="http://www.w3.org/1999/xlink" overflow="hidden"><defs><clipPath id="clip0"><rect x="768" y="77" width="453" height="452"/></clipPath><clipPath id="clip1"><rect x="769" y="78" width="451" height="451"/></clipPath><clipPath id="clip2"><rect x="769" y="78" width="451" height="451"/></clipPath><clipPath id="clip3"><rect x="769" y="78" width="451" height="565"/></clipPath></defs><g clip-path="url(#clip0)" transform="translate(-768 -77)"><g clip-path="url(#clip1)"><g clip-path="url(#clip2)"><g clip-path="url(#clip3)"><path d="M397.128 110.833 340.189 53.89C338.421 52.1266 335.567 52.1266 333.812 53.89L318.343 69.3503C317.495 70.1982 317.021 71.3437 317.021 72.5388 317.021 73.7385 317.495 74.884 318.343 75.7274L335.9 93.2848 153.074 276.107C153.06 276.116 153.051 276.116 153.038 276.125 147.923 281.226 139.612 281.226 134.515 276.125 132.179 273.789 130.826 270.69 130.686 267.384 130.682 267.29 130.673 267.19 130.664 267.096 130.411 260.277 124.787 254.806 117.909 254.806 114.477 254.806 111.226 256.055 108.862 258.576L69.8689 297.57 69.8644 297.57C58.7022 308.732 52.555 323.574 52.555 339.359 52.555 355.145 58.7022 369.987 69.8689 381.149 92.9105 404.191 130.407 404.191 153.444 381.149L192.428 342.156C194.873 339.788 196.203 336.527 196.203 333.113 196.208 329.704 194.886 326.497 192.473 324.084 190.182 321.784 187.17 320.472 183.945 320.354 183.841 320.341 183.737 320.332 183.634 320.323 180.328 320.197 177.229 318.825 174.893 316.489 169.842 311.434 169.788 303.239 174.731 298.116L357.733 115.122 375.282 132.671C377.054 134.434 379.895 134.434 381.659 132.671L397.128 117.21C398.887 115.447 398.887 112.597 397.128 110.833Z" transform="matrix(1 0 0 1.00149 769 78)"/><text font-family="Arial,Arial_MSFontService,sans-serif" font-weight="700" font-size="5" transform="matrix(4.51 0 0 4.51672 769 597)">Created by Round Pixel<tspan font-size="5" x="0" y="5.09219">from the Noun Project</tspan></text></g></g></g></g></svg>